<svg version="1.1" xmlns="http://www.w3.org/2000/svg" viewBox="0 0 1254 1254" preserveAspectRatio="xMidYMid meet">
  <defs>
    <linearGradient id="lumiereGold" x1="0" y1="0" x2="0" y2="1">
      <stop offset="0%" stop-color="#f5d76e"/>
      <stop offset="50%" stop-color="#d4af37"/>
      <stop offset="100%" stop-color="#9f7f20"/>
    </linearGradient>
  </defs>
<g fill="url(#lumiereGold)">
<path d="M1004,113v3l-14,18l-12,18l-11,18l-10,18l-9,19l-9,24l-5,17l-5,25v39l6,32l6,20l5,12l11,24l11,21l13,21l15,22l12,16l11,14l11,13l12,16l14,20l14,22l12,20l12,24l11,28l6,18l7,26l5,26l4,27l1,10v53l-1,3l-2,21l-7,32l-7,24l-7,21l-11,26l-10,21l-13,23l-16,25l-12,16l-11,14l-12,14l-12,13l-20,20l-8,7l-13,11l-13,10l-18,13l-17,11l-22,13l-27,14l-14,7l-2-1l13-10l22-18l15-14l13-13l9-11l11-13l13-19l8-13l12-22l8-19l5-14l4-10l6-23l6-34l1-12V865l-4-28l-7-26l-10-25l-10-20l-12-19l-13-18l-11-14l-12-14l-12-13l-9-10l-7-7l-7-8l-14-14l-7-8l-7-7l-9-11l-12-15l-12-18l-9-15l-8-14l-12-28l-8-27l-3-16l-1-9V430l5-32l5-21l9-29l13-32l8-16l10-19l15-24l14-19l8-10l11-13l11-12l8-9l8-7l11-11l8-7l13-11l17-13l18-13l17-11Z"/>
<path d="M661,70h36l25,1l38,4l43,9l20,5l16,5l12,5l25,11l17,9l1,2l-9-3l-20-7l-21-6l-36-7l-28-3l-11-1H715l-21,2l-33,5l-35,7l-27,7l-51,17l-30,13l-25,12l-27,14l-25,15l-21,14l-14,10l-17,13l-11,9l-14,12l-12,11l-10,9l-20,20l-7,8l-10,11l-9,11l-14,18l-10,14l-10,15l-14,24l-11,20l-13,29l-9,24l-9,28l-5,21l-4,16l-4,24l-4,32l-1,19v69l2,21l8,42l6,22l12,36l11,26l8,16l12,23l11,18l16,24l14,19l13,16l12,14l14,15l22,22l8,7l13,11l17,13l18,13l19,12l21,12l30,15l30,12l27,9l36,9l23,4l14,2l18,1l4,1h48l24-2l22-3l32-6l23-6l18-6l2,1l-13,6l-23,9l-38,13l-24,6l-22,4l-8,2l-26,3l-3,1l-13,1H560l-24-2l-34-5l-24-5l-29-8l-27-9l-29-12l-27-13l-21-12l-14-9l-19-13l-17-13l-11-9l-10-9l-8-7l-29-29l-9-11l-11-13l-12-16l-12-17l-14-22l-14-25l-11-22l-13-31l-12-35l-8-28l-7-36l-4-29l-2-16l-1-14V604l3-38l4-25l3-17l8-32l6-18l4-13l3-8l11-27l11-24l10-20l14-24l10-17l8-12l12-17l12-16l13-16l13-15l12-13l25-25l8-7l10-9l11-9l18-14l18-13l21-14l15-9l23-13l21-11l31-14l13-5l27-10l15-5l25-7l36-8l21-3l19-3Z"/>
<path d="M747,443l1,2l-8,15l-8,21l-5,19l-3,21v42l3,26l5,23l6,18l12,27l11,20l14,21l14,19l14,17l12,14l11,12l7,8l11,12l7,8l13,15l15,20l11,19l8,16l8,20l6,22l4,18l3,22v33l-1,13l-3,16l-7,25l-4,13l-6,13l-11,23l-9,15l-8,12l-12,16l-12,14l-8,9l-8,7l-13,12l-13,10l-16,11l-15,9v-3l5-5l10-11l13-17l11-17l9-17l8-22l3-17v-21l-2-15l-5-17l-8-18l-11-19l-14-19l-11-12l-7-8l-13-13l-8-7l-15-13l-28-24l-16-15l-19-19l-9-11l-10-12l-12-18l-9-16l-10-21l-11-33l-5-26l-1-14V682l4-24l8-29l11-28l16-33l15-26l16-24l14-19l11-13l18-20l12-11l10-9Z"/>
</g>
<path d="M699,159h9l-4,2l-18,4l-21,5l-29,9l-28,10l-27,11l-28,13l-22,11l-24,14l-18,11l-19,13l-19,14l-13,11l-11,9l-13,12l-16,15l-12,13l-9,10l-11,14l-12,15l-14,20l-13,20l-10,17l-12,23l-13,32l-9,27l-9,34l-6,27l-3,21l-3,20l-1,10v49l2,25l2,13l6,31l5,20l10,30l9,22l14,29l10,18l13,21l14,19l9,11l12,14l12,13l4,5l-5-2l-14-11l-13-11l-12-11l-14-14l-9-11l-11-13l-12-17l-12-19l-13-24l-11-25l-9-25l-6-17l-6-24l-4-22l-3-17l-2-19V607l2-26l4-24l3-19l9-36l9-29l13-33l14-29l13-22l12-18l14-19l12-14l7-8l11-12l14-14l8-7l11-10l14-11l17-13l24-16l25-15l27-14l25-12l32-13l20-7l15-5l23-6l14-4l35-7l24-3Z" fill="url(#lumiereGold)"/>
<path d="M865,106l9,3l16,8l4,4l-9-3l-20-7l-1-3Z" fill="url(#lumiereGold)"/>
</svg>